<svg width="71" height="71" viewBox="0 0 71 71" fill="none" xmlns="http://www.w3.org/2000/svg">
<path d="M42.5 21.5211H46C46.9283 21.5211 47.8185 21.1523 48.4749 20.4959C49.1312 19.8396 49.5 18.9493 49.5 18.0211C49.5 17.0928 49.1312 16.2026 48.4749 15.5462C47.8185 14.8898 46.9283 14.5211 46 14.5211H42.5C41.5717 14.5211 40.6815 14.8898 40.0251 15.5462C39.3688 16.2026 39 17.0928 39 18.0211C39 18.9493 39.3688 19.8396 40.0251 20.4959C40.6815 21.1523 41.5717 21.5211 42.5 21.5211ZM42.5 35.5211H46C46.9283 35.5211 47.8185 35.1523 48.4749 34.4959C49.1312 33.8396 49.5 32.9493 49.5 32.0211C49.5 31.0928 49.1312 30.2026 48.4749 29.5462C47.8185 28.8898 46.9283 28.5211 46 28.5211H42.5C41.5717 28.5211 40.6815 28.8898 40.0251 29.5462C39.3688 30.2026 39 31.0928 39 32.0211C39 32.9493 39.3688 33.8396 40.0251 34.4959C40.6815 35.1523 41.5717 35.5211 42.5 35.5211ZM25 21.5211H28.5C29.4283 21.5211 30.3185 21.1523 30.9749 20.4959C31.6313 19.8396 32 18.9493 32 18.0211C32 17.0928 31.6313 16.2026 30.9749 15.5462C30.3185 14.8898 29.4283 14.5211 28.5 14.5211H25C24.0717 14.5211 23.1815 14.8898 22.5251 15.5462C21.8687 16.2026 21.5 17.0928 21.5 18.0211C21.5 18.9493 21.8687 19.8396 22.5251 20.4959C23.1815 21.1523 24.0717 21.5211 25 21.5211ZM25 35.5211H28.5C29.4283 35.5211 30.3185 35.1523 30.9749 34.4959C31.6313 33.8396 32 32.9493 32 32.0211C32 31.0928 31.6313 30.2026 30.9749 29.5462C30.3185 28.8898 29.4283 28.5211 28.5 28.5211H25C24.0717 28.5211 23.1815 28.8898 22.5251 29.5462C21.8687 30.2026 21.5 31.0928 21.5 32.0211C21.5 32.9493 21.8687 33.8396 22.5251 34.4959C23.1815 35.1523 24.0717 35.5211 25 35.5211ZM67 63.5211H63.5V4.02106C63.5 3.0928 63.1313 2.20256 62.4749 1.54618C61.8185 0.889806 60.9283 0.521057 60 0.521057H11C10.0717 0.521057 9.1815 0.889806 8.52513 1.54618C7.86875 2.20256 7.5 3.0928 7.5 4.02106V63.5211H4C3.07174 63.5211 2.1815 63.8898 1.52513 64.5462C0.868749 65.2026 0.5 66.0928 0.5 67.0211C0.5 67.9493 0.868749 68.8396 1.52513 69.4959C2.1815 70.1523 3.07174 70.5211 4 70.5211H67C67.9283 70.5211 68.8185 70.1523 69.4749 69.4959C70.1313 68.8396 70.5 67.9493 70.5 67.0211C70.5 66.0928 70.1313 65.2026 69.4749 64.5462C68.8185 63.8898 67.9283 63.5211 67 63.5211ZM39 63.5211H32V49.5211H39V63.5211ZM56.5 63.5211H46V46.0211C46 45.0928 45.6312 44.2026 44.9749 43.5462C44.3185 42.8898 43.4283 42.5211 42.5 42.5211H28.5C27.5717 42.5211 26.6815 42.8898 26.0251 43.5462C25.3687 44.2026 25 45.0928 25 46.0211V63.5211H14.5V7.52106H56.5V63.5211Z" fill="#616161"/>
</svg>
