<svg width="71" height="64" viewBox="0 0 71 64" fill="none" xmlns="http://www.w3.org/2000/svg">
<path d="M68.12 7.17768L47.12 0.177679H46.875C46.7121 0.161304 46.5479 0.161304 46.385 0.177679H45.58H45.125H44.88L25 7.00268L5.12001 0.177679C4.59366 0.00411915 4.03362 -0.0419626 3.48598 0.0432256C2.93835 0.128414 2.41877 0.342437 1.97001 0.667679C1.51767 0.989736 1.14844 1.4148 0.892833 1.90775C0.637228 2.40071 0.502579 2.9474 0.500012 3.50268V52.5027C0.498118 53.2364 0.726878 53.9522 1.15396 54.5489C1.58104 55.1455 2.18484 55.5929 2.88001 55.8277L23.88 62.8277C24.5851 63.0576 25.3449 63.0576 26.05 62.8277L46 56.1777L65.88 63.0027C66.2516 63.0531 66.6284 63.0531 67 63.0027C67.7318 63.0129 68.4461 62.7789 69.03 62.3377C69.4823 62.0156 69.8516 61.5905 70.1072 61.0976C70.3628 60.6046 70.4974 60.0579 70.5 59.5027V10.5027C70.5019 9.76892 70.2731 9.05313 69.846 8.45647C69.419 7.85982 68.8152 7.41248 68.12 7.17768ZM21.5 54.6377L7.50001 49.9827V8.36767L21.5 13.0227V54.6377ZM42.5 49.9827L28.5 54.6377V13.0227L42.5 8.36767V49.9827ZM63.5 54.6377L49.5 49.9827V8.36767L63.5 13.0227V54.6377Z" fill="#616161"/>
</svg>
