<svg width="65" height="51" viewBox="0 0 65 51" fill="none" xmlns="http://www.w3.org/2000/svg">
<path d="M33.3748 26.1627C34.9311 24.8156 36.1794 23.1495 37.0349 21.2774C37.8904 19.4053 38.3332 17.371 38.3332 15.3127C38.3332 11.445 36.7967 7.73565 34.0618 5.00075C31.3269 2.26584 27.6176 0.729386 23.7498 0.729386C19.8821 0.729386 16.1728 2.26584 13.4379 5.00075C10.703 7.73565 9.1665 11.445 9.1665 15.3127C9.16648 17.371 9.60926 19.4053 10.4648 21.2774C11.3203 23.1495 12.5686 24.8156 14.1248 26.1627C10.0419 28.0115 6.57786 30.9972 4.14686 34.7626C1.71586 38.5281 0.420797 42.914 0.416504 47.396C0.416504 48.1696 0.723795 48.9115 1.27078 49.4584C1.81776 50.0054 2.55962 50.3127 3.33317 50.3127C4.10672 50.3127 4.84858 50.0054 5.39557 49.4584C5.94255 48.9115 6.24984 48.1696 6.24984 47.396C6.24984 42.7548 8.09358 38.3036 11.3755 35.0217C14.6574 31.7398 19.1085 29.8961 23.7498 29.896C28.3911 29.896 32.8423 31.7398 36.1242 35.0217C39.4061 38.3036 41.2498 42.7548 41.2498 47.396C41.2498 48.1696 41.5571 48.9115 42.1041 49.4584C42.6511 50.0054 43.393 50.3127 44.1665 50.3127C44.94 50.3127 45.6819 50.0054 46.2289 49.4584C46.7759 48.9115 47.0832 48.1696 47.0832 47.396C47.0789 42.914 45.7838 38.5281 43.3528 34.7626C40.9218 30.9972 37.4578 28.0115 33.3748 26.1627ZM23.7498 24.0627C22.0192 24.0627 20.3275 23.5495 18.8886 22.5881C17.4497 21.6266 16.3282 20.2601 15.6659 18.6612C15.0036 17.0623 14.8303 15.303 15.168 13.6057C15.5056 11.9083 16.3389 10.3492 17.5627 9.12554C18.7864 7.90183 20.3455 7.06847 22.0428 6.73085C23.7401 6.39323 25.4995 6.56651 27.0983 7.22877C28.6972 7.89104 30.0637 9.01255 31.0252 10.4515C31.9867 11.8904 32.4998 13.5821 32.4998 15.3127C32.4998 17.6334 31.578 19.859 29.937 21.4999C28.2961 23.1408 26.0705 24.0627 23.7498 24.0627ZM52.1582 24.996C54.0247 22.8941 55.244 20.2975 55.6693 17.5187C56.0945 14.74 55.7075 11.8975 54.555 9.33355C53.4024 6.76959 51.5334 4.59337 49.1729 3.06687C46.8123 1.54036 44.0609 0.728634 41.2498 0.729386C40.4763 0.729386 39.7344 1.03668 39.1874 1.58366C38.6405 2.13064 38.3332 2.8725 38.3332 3.64605C38.3332 4.4196 38.6405 5.16147 39.1874 5.70845C39.7344 6.25543 40.4763 6.56272 41.2498 6.56272C43.5705 6.56272 45.7961 7.48459 47.437 9.12554C49.078 10.7665 49.9998 12.9921 49.9998 15.3127C49.9957 16.8447 49.5894 18.3487 48.8217 19.6744C48.0539 21 46.9515 22.1009 45.6248 22.8669C45.1924 23.1163 44.8312 23.4726 44.5759 23.9015C44.3206 24.3305 44.1796 24.8178 44.1665 25.3169C44.1543 25.812 44.2684 26.3021 44.498 26.741C44.7276 27.1798 45.0653 27.553 45.479 27.8252L46.6165 28.5836L46.9957 28.7877C50.5114 30.4552 53.4774 33.0927 55.5444 36.3895C57.6113 39.6862 58.6931 43.505 58.6623 47.396C58.6623 48.1696 58.9696 48.9115 59.5166 49.4584C60.0636 50.0054 60.8055 50.3127 61.579 50.3127C62.3525 50.3127 63.0944 50.0054 63.6414 49.4584C64.1884 48.9115 64.4957 48.1696 64.4957 47.396C64.5195 42.9202 63.3985 38.5126 61.2391 34.5921C59.0797 30.6715 55.9538 27.3682 52.1582 24.996Z" fill="#616161"/>
</svg>
