<svg width="68" height="54" viewBox="0 0 68 54" fill="none" xmlns="http://www.w3.org/2000/svg">
<path d="M68.7255 19.5821L65.3917 17.7485L35.3874 1.07942H35.0206C34.8162 0.993007 34.6042 0.926035 34.3872 0.879395H33.7538H33.1537C32.9259 0.926065 32.7028 0.993008 32.4869 1.07942H32.1202L2.11585 17.7485C1.60279 18.0393 1.17603 18.4609 0.879123 18.9705C0.582214 19.48 0.425781 20.0592 0.425781 20.6489C0.425781 21.2387 0.582214 21.8178 0.879123 22.3274C1.17603 22.8369 1.60279 23.2586 2.11585 23.5494L10.4171 28.15V43.9523C10.4171 46.6049 11.4708 49.1488 13.3464 51.0244C15.2221 52.9001 17.766 53.9538 20.4185 53.9538H47.0891C49.7416 53.9538 52.2855 52.9001 54.1612 51.0244C56.0368 49.1488 57.0905 46.6049 57.0905 43.9523V28.15L63.7581 24.4162V33.9509C63.7581 34.8351 64.1094 35.683 64.7346 36.3082C65.3598 36.9334 66.2078 37.2847 67.092 37.2847C67.9761 37.2847 68.8241 36.9334 69.4493 36.3082C70.0745 35.683 70.4258 34.8351 70.4258 33.9509V22.4825C70.4248 21.8918 70.2668 21.3119 69.968 20.8023C69.6693 20.2927 69.2405 19.8716 68.7255 19.5821ZM50.4229 43.9523C50.4229 44.8365 50.0716 45.6845 49.4464 46.3097C48.8212 46.9349 47.9732 47.2861 47.0891 47.2861H20.4185C19.5343 47.2861 18.6864 46.9349 18.0611 46.3097C17.4359 45.6845 17.0847 44.8365 17.0847 43.9523V31.8506L32.1202 40.1851L32.6203 40.3851H32.9203C33.1971 40.42 33.4771 40.42 33.7538 40.3851C34.0305 40.42 34.3105 40.42 34.5872 40.3851H34.8873C35.0643 40.3478 35.2335 40.2802 35.3874 40.1851L50.4229 31.8506V43.9523ZM33.7538 33.4841L10.6171 20.6156L33.7538 7.74706L56.8905 20.6156L33.7538 33.4841Z" fill="#616161"/>
</svg>
