<svg width="71" height="64" viewBox="0 0 71 64" fill="none" xmlns="http://www.w3.org/2000/svg">
<path d="M60 10.5211H49.5V7.02106C49.5 5.16454 48.7625 3.38406 47.4497 2.07131C46.137 0.758555 44.3565 0.0210571 42.5 0.0210571H28.5C26.6435 0.0210571 24.863 0.758555 23.5503 2.07131C22.2375 3.38406 21.5 5.16454 21.5 7.02106V10.5211H11C8.21523 10.5211 5.54451 11.6273 3.57538 13.5964C1.60625 15.5656 0.5 18.2363 0.5 21.0211V52.5211C0.5 55.3058 1.60625 57.9766 3.57538 59.9457C5.54451 61.9148 8.21523 63.0211 11 63.0211H60C62.7848 63.0211 65.4555 61.9148 67.4246 59.9457C69.3938 57.9766 70.5 55.3058 70.5 52.5211V21.0211C70.5 18.2363 69.3938 15.5656 67.4246 13.5964C65.4555 11.6273 62.7848 10.5211 60 10.5211ZM28.5 7.02106H42.5V10.5211H28.5V7.02106ZM63.5 52.5211C63.5 53.4493 63.1313 54.3396 62.4749 54.9959C61.8185 55.6523 60.9283 56.0211 60 56.0211H11C10.0717 56.0211 9.1815 55.6523 8.52513 54.9959C7.86875 54.3396 7.5 53.4493 7.5 52.5211V32.8861L23.88 38.5211C24.2516 38.5715 24.6284 38.5715 25 38.5211H46C46.3796 38.514 46.7564 38.4552 47.12 38.3461L63.5 32.8861V52.5211ZM63.5 25.5011L45.44 31.5211H25.56L7.5 25.5011V21.0211C7.5 20.0928 7.86875 19.2026 8.52513 18.5462C9.1815 17.8898 10.0717 17.5211 11 17.5211H60C60.9283 17.5211 61.8185 17.8898 62.4749 18.5462C63.1313 19.2026 63.5 20.0928 63.5 21.0211V25.5011Z" fill="#616161"/>
</svg>
