<svg width="71" height="65" viewBox="0 0 71 65" fill="none" xmlns="http://www.w3.org/2000/svg">
<path d="M70.3862 38.3203C70.3736 38.1332 70.3436 37.9477 70.2965 37.7661L62.9634 18.239C64.2979 17.3758 65.3954 16.1925 66.156 14.7969C66.9166 13.4014 67.3161 11.8377 67.3182 10.2483C67.3182 9.40446 66.983 8.59516 66.3863 7.99845C65.7895 7.40174 64.9802 7.06652 64.1364 7.06652C63.2925 7.06652 62.4832 7.40174 61.8865 7.99845C61.2898 8.59516 60.9545 9.40446 60.9545 10.2483C60.9543 10.9574 60.7173 11.6461 60.2811 12.2051C59.845 12.7642 59.2346 13.1616 58.5469 13.3343C57.8592 13.507 57.1336 13.4452 56.485 13.1586C55.8364 12.872 55.3022 12.377 54.9669 11.7523C54.1504 10.303 52.9565 9.10199 51.5121 8.27694C50.0677 7.45188 48.4268 7.03359 46.7636 7.06652H38.6818V3.8847C38.6818 3.04083 38.3466 2.23152 37.7499 1.63481C37.1532 1.03811 36.3439 0.702881 35.5 0.702881C34.6561 0.702881 33.8468 1.03811 33.2501 1.63481C32.6534 2.23152 32.3182 3.04083 32.3182 3.8847V7.06652H24.2364C22.5733 7.03359 20.9323 7.45188 19.4879 8.27694C18.0435 9.10199 16.8496 10.303 16.0331 11.7523C15.6979 12.377 15.1636 12.872 14.515 13.1586C13.8664 13.4452 13.1408 13.507 12.4531 13.3343C11.7654 13.1616 11.155 12.7642 10.7189 12.2051C10.2827 11.6461 10.0457 10.9574 10.0455 10.2483C10.0455 9.40446 9.71023 8.59516 9.11352 7.99845C8.51682 7.40174 7.70751 7.06652 6.86364 7.06652C6.01977 7.06652 5.21046 7.40174 4.61375 7.99845C4.01704 8.59516 3.68182 9.40446 3.68182 10.2483C3.6839 11.8377 4.08341 13.4014 4.84399 14.7969C5.60456 16.1925 6.70206 17.3758 8.03661 18.239L0.703636 37.7661C0.656565 37.9477 0.626536 38.1332 0.613941 38.3203C0.558063 38.5044 0.519909 38.6934 0.5 38.8847C0.5 38.9142 0.508559 38.9414 0.50875 38.9709C0.509705 39.0129 0.518295 39.0515 0.521159 39.0933C0.5707 42.4305 1.93117 45.6142 4.30864 47.9566C6.68611 50.2991 9.8897 51.6121 13.2273 51.6121C16.5648 51.6121 19.7684 50.2991 22.1459 47.9566C24.5234 45.6142 25.8838 42.4305 25.9334 39.0933C25.9361 39.0515 25.9448 39.0129 25.9458 38.9709C25.946 38.9414 25.9545 38.9142 25.9545 38.8847C25.9347 38.6934 25.8966 38.5044 25.8407 38.3203C25.8281 38.1332 25.7981 37.9477 25.751 37.7661L18.4094 18.2163C19.7577 17.3558 20.8673 16.1692 21.6355 14.7663C21.9131 14.3344 22.2998 13.9835 22.7565 13.7489C23.2131 13.5143 23.7236 13.4043 24.2364 13.4302H32.3182V57.9756H22.7727C21.9289 57.9756 21.1195 58.3108 20.5228 58.9075C19.9261 59.5042 19.5909 60.3135 19.5909 61.1574C19.5909 62.0013 19.9261 62.8106 20.5228 63.4073C21.1195 64.004 21.9289 64.3392 22.7727 64.3392H48.2273C49.0711 64.3392 49.8805 64.004 50.4772 63.4073C51.0739 62.8106 51.4091 62.0013 51.4091 61.1574C51.4091 60.3135 51.0739 59.5042 50.4772 58.9075C49.8805 58.3108 49.0711 57.9756 48.2273 57.9756H38.6818V13.4302H46.7636C47.2764 13.4044 47.7868 13.5143 48.2435 13.7489C48.7001 13.9835 49.0868 14.3344 49.3644 14.7663C50.1326 16.1692 51.2422 17.3558 52.5905 18.2163L45.2491 37.7661C45.202 37.9477 45.172 38.1332 45.1594 38.3203C45.1035 38.5044 45.0654 38.6934 45.0455 38.8847C45.0455 38.9142 45.054 38.9414 45.0542 38.9709C45.0552 39.0129 45.0638 39.0515 45.0666 39.0933C45.1162 42.4305 46.4766 45.6142 48.8541 47.9566C51.2316 50.2991 54.4352 51.6121 57.7727 51.6121C61.1103 51.6121 64.3139 50.2991 66.6914 47.9566C69.0688 45.6142 70.4293 42.4305 70.4788 39.0933C70.4815 39.0515 70.4903 39.0129 70.4912 38.9709C70.4914 38.9414 70.5 38.9142 70.5 38.8847C70.4801 38.6934 70.442 38.5044 70.3862 38.3203ZM13.2273 22.5159L18.1795 35.7029H8.27509L13.2273 22.5159ZM18.7085 42.0665C18.1469 43.0246 17.3471 43.8212 16.3866 44.3787C15.4261 44.9363 14.3378 45.2359 13.2273 45.2483C12.1106 45.2479 11.0136 44.9537 10.0466 44.3952C9.07958 43.8367 8.27653 43.0336 7.71811 42.0665H18.7085ZM57.7727 22.5159L62.7249 35.7029H52.8205L57.7727 22.5159ZM57.7727 45.2483C56.656 45.2479 55.5591 44.9537 54.5921 44.3952C53.625 43.8367 52.822 43.0336 52.2636 42.0665H63.2539C62.6924 43.0246 61.8925 43.8212 60.932 44.3787C59.9716 44.9363 58.8832 45.2359 57.7727 45.2483Z" fill="#616161"/>
</svg>
