<svg width="59" height="36" viewBox="0 0 59 36" fill="none" xmlns="http://www.w3.org/2000/svg">
<path d="M58.4333 1.82939C58.1374 1.1167 57.571 0.550359 56.8583 0.25439C56.5077 0.104937 56.1311 0.0256654 55.75 0.0210571H41.1667C40.3931 0.0210571 39.6512 0.328348 39.1043 0.87533C38.5573 1.42231 38.25 2.16418 38.25 2.93772C38.25 3.71127 38.5573 4.45314 39.1043 5.00012C39.6512 5.5471 40.3931 5.85439 41.1667 5.85439H48.7208L32.4167 22.1586L22.8208 12.5336C22.5497 12.2602 22.2271 12.0432 21.8717 11.8951C21.5162 11.747 21.135 11.6708 20.75 11.6708C20.365 11.6708 19.9837 11.747 19.6283 11.8951C19.2729 12.0432 18.9503 12.2602 18.6792 12.5336L1.17915 30.0336C0.905777 30.3047 0.688793 30.6273 0.540718 30.9827C0.392643 31.3381 0.316406 31.7194 0.316406 32.1044C0.316406 32.4894 0.392643 32.8706 0.540718 33.2261C0.688793 33.5815 0.905777 33.9041 1.17915 34.1752C1.45029 34.4486 1.77288 34.6656 2.1283 34.8137C2.48373 34.9617 2.86495 35.038 3.24998 35.038C3.63502 35.038 4.01624 34.9617 4.37167 34.8137C4.72709 34.6656 5.04968 34.4486 5.32082 34.1752L20.75 18.7169L30.3458 28.3419C30.617 28.6153 30.9395 28.8322 31.295 28.9803C31.6504 29.1284 32.0316 29.2046 32.4167 29.2046C32.8017 29.2046 33.1829 29.1284 33.5383 28.9803C33.8938 28.8322 34.2163 28.6153 34.4875 28.3419L52.8333 9.96689V17.5211C52.8333 18.2946 53.1406 19.0365 53.6876 19.5835C54.2346 20.1304 54.9764 20.4377 55.75 20.4377C56.5235 20.4377 57.2654 20.1304 57.8124 19.5835C58.3594 19.0365 58.6667 18.2946 58.6667 17.5211V2.93772C58.662 2.55658 58.5828 2.18004 58.4333 1.82939Z" fill="#616161"/>
</svg>
