<svg width="65" height="65" viewBox="0 0 65 65" fill="none" xmlns="http://www.w3.org/2000/svg">
<path d="M32.4999 12.1044C28.4618 12.1044 24.5145 13.3018 21.157 15.5452C17.7995 17.7886 15.1826 20.9773 13.6373 24.7079C12.092 28.4386 11.6877 32.5437 12.4755 36.5041C13.2633 40.4646 15.2078 44.1025 18.0631 46.9578C20.9184 49.8131 24.5563 51.7576 28.5168 52.5454C32.4772 53.3332 36.5823 52.9289 40.313 51.3836C44.0436 49.8383 47.2323 47.2214 49.4757 43.8639C51.7191 40.5064 52.9165 36.5591 52.9165 32.521C52.9165 27.1062 50.7655 21.9132 46.9366 18.0843C43.1077 14.2554 37.9147 12.1044 32.4999 12.1044ZM32.4999 47.1044C29.6155 47.1044 26.796 46.2491 24.3978 44.6466C21.9996 43.0442 20.1304 40.7666 19.0266 38.1018C17.9228 35.4371 17.634 32.5049 18.1967 29.676C18.7594 26.8471 20.1484 24.2486 22.1879 22.2091C24.2274 20.1696 26.8259 18.7806 29.6548 18.2179C32.4837 17.6552 35.4159 17.944 38.0807 19.0478C40.7454 20.1516 43.023 22.0208 44.6255 24.419C46.2279 26.8172 47.0832 29.6367 47.0832 32.521C47.0832 36.3888 45.5467 40.0981 42.8118 42.833C40.0769 45.5679 36.3676 47.1044 32.4999 47.1044ZM32.4999 23.771C30.7693 23.771 29.0775 24.2842 27.6386 25.2457C26.1997 26.2072 25.0782 27.5737 24.4159 29.1726C23.7536 30.7714 23.5804 32.5308 23.918 34.2281C24.2556 35.9254 25.089 37.4845 26.3127 38.7082C27.5364 39.9319 29.0955 40.7653 30.7928 41.1029C32.4901 41.4405 34.2495 41.2673 35.8483 40.605C37.4472 39.9427 38.8137 38.8212 39.7752 37.3823C40.7367 35.9434 41.2499 34.2516 41.2499 32.521C41.2499 30.2004 40.328 27.9748 38.687 26.3339C37.0461 24.6929 34.8205 23.771 32.4999 23.771ZM32.4999 35.4377C31.923 35.4377 31.3591 35.2667 30.8794 34.9462C30.3998 34.6257 30.026 34.1702 29.8052 33.6372C29.5844 33.1043 29.5267 32.5178 29.6392 31.952C29.7518 31.3863 30.0296 30.8666 30.4375 30.4587C30.8454 30.0508 31.3651 29.773 31.9308 29.6604C32.4966 29.5479 33.0831 29.6056 33.616 29.8264C34.149 30.0472 34.6045 30.421 34.925 30.9006C35.2455 31.3803 35.4165 31.9442 35.4165 32.521C35.4165 33.2946 35.1092 34.0365 34.5622 34.5834C34.0153 35.1304 33.2734 35.4377 32.4999 35.4377ZM32.4999 0.437714C26.1544 0.437714 19.9514 2.31937 14.6753 5.84473C9.39923 9.37009 5.28703 14.3808 2.85872 20.2433C0.430405 26.1057 -0.204952 32.5566 1.03299 38.7802C2.27093 45.0038 5.32658 50.7205 9.81351 55.2074C14.3004 59.6943 20.0171 62.75 26.2407 63.9879C32.4643 65.2259 38.9152 64.5905 44.7776 62.1622C50.6401 59.7339 55.6508 55.6217 59.1762 50.3456C62.7015 45.0695 64.5832 38.8665 64.5832 32.521C64.5832 24.012 61.203 15.8515 55.1862 9.83471C49.1694 3.81791 41.0089 0.437714 32.4999 0.437714ZM32.4999 58.771C27.3081 58.771 22.2329 57.2315 17.9161 54.3471C13.5993 51.4627 10.2348 47.363 8.24801 42.5665C6.26121 37.7699 5.74138 32.4919 6.75424 27.3999C7.7671 22.3079 10.2672 17.6306 13.9383 13.9595C17.6094 10.2884 22.2867 7.7883 27.3787 6.77543C32.4707 5.76257 37.7487 6.28241 42.5453 8.26921C47.3419 10.256 51.4415 13.6205 54.3259 17.9373C57.2103 22.2541 58.7499 27.3293 58.7499 32.521C58.7499 39.483 55.9842 46.1598 51.0614 51.0826C46.1386 56.0054 39.4618 58.771 32.4999 58.771Z" fill="#616161"/>
</svg>
